<svg version="1.0" xmlns="http://www.w3.org/2000/svg" width="462" height="470" viewBox="0 0 462 470" preserveAspectRatio="xMidYMid meet">
  <g transform="translate(0,470) scale(0.05,-0.05)" fill="#fed120" stroke="none">
    <path d="M3980 8160 c0 -27 -13 -40 -40 -40 -27 0 -40 -13 -40 -40 0 -22 -13 -40 -29 -40 -44 0 -50 -49 -46 -330 l5 -260 75 -6 c59 -5 75 -15 75 -45 0 -22 14 -39 30 -39 20 0 30 -20 30 -60 0 -40 -10 -60 -30 -60 -17 0 -30 -18 -30 -40 0 -36 -13 -40 -150 -40 -115 0 -150 -7 -150 -28 0 -37 -41 -51 -130 -42 -60 5 -77 -1 -85 -32 -7 -28 -27 -38 -75 -38 -49 0 -68 -10 -76 -40 -8 -33 -27 -40 -110 -40 -82 0 -101 -7 -110 -40 -8 -33 -21 -38 -73 -27 -53 10 -65 6 -74 -30 -7 -24 -24 -43 -39 -43 -16 0 -28 -18 -28 -40 0 -32 -13 -40 -68 -40 -51 0 -70 -10 -78 -40 -6 -24 -27 -40 -51 -40 -29 0 -38 -9 -30 -30 9 -23 -5 -30 -61 -30 -51 0 -72 9 -72 30 0 17 -13 30 -30 30 -16 0 -30 14 -30 30 0 17 14 30 30 30 52 0 42 232 -10 246 -22 6 -40 25 -40 42 0 18 -13 32 -30 32 -16 0 -30 14 -30 32 0 17 -18 36 -40 42 -22 6 -40 23 -40 38 0 21 -31 28 -120 28 -93 0 -120 -7 -120 -30 0 -16 -14 -30 -32 -30 -17 0 -36 -18 -42 -40 -6 -22 -22 -40 -36 -40 -14 0 -30 -18 -36 -40 -6 -22 -25 -40 -42 -40 -18 0 -32 -13 -32 -30 0 -16 -13 -30 -29 -30 -15 0 -34 -18 -41 -40 -7 -22 -26 -40 -41 -40 -16 0 -29 -18 -29 -40 0 -27 -13 -40 -40 -40 -27 0 -40 -13 -40 -40 0 -26 -13 -40 -37 -40 -32 0 -38 -16 -39 -105 -1 -136 14 -195 48 -195 15 0 28 -18 28 -40 0 -26 13 -40 38 -40 21 0 42 -18 48 -40 9 -35 27 -40 142 -40 104 0 132 -6 132 -30 0 -17 18 -30 40 -30 57 0 57 -111 0 -126 -22 -6 -40 -25 -40 -42 0 -18 -13 -32 -30 -32 -17 0 -30 -18 -30 -40 0 -27 -13 -40 -40 -40 -32 0 -40 -13 -40 -68 0 -51 -10 -70 -40 -78 -31 -8 -40 -27 -40 -82 0 -51 -9 -72 -30 -72 -17 0 -30 -18 -30 -41 0 -28 -11 -39 -35 -35 -29 5 -36 -12 -41 -109 -4 -84 -14 -115 -35 -115 -29 0 -37 -21 -30 -86 3 -23 -12 -41 -37 -48 -32 -8 -42 -27 -42 -78 0 -55 -8 -68 -40 -68 -36 0 -40 -13 -40 -150 0 -137 -3 -150 -40 -150 -63 0 -61 -1398 1 -1414 34 -9 39 -29 39 -150 0 -123 5 -141 40 -150 33 -9 40 -27 40 -106 0 -80 7 -97 42 -106 35 -10 41 -23 34 -75 -8 -50 -2 -66 27 -74 27 -7 37 -28 37 -77 0 -55 8 -68 40 -68 32 0 40 -13 40 -71 0 -44 11 -75 30 -82 19 -7 30 -37 30 -79 0 -53 8 -68 38 -68 21 0 42 -18 48 -40 6 -22 25 -40 42 -40 18 0 32 -13 32 -30 0 -16 14 -30 30 -30 20 0 30 -20 30 -62 0 -45 11 -65 40 -72 22 -6 40 -27 40 -48 0 -21 14 -38 32 -38 17 0 36 -17 42 -38 5 -21 28 -43 50 -49 23 -6 34 -20 26 -33 -8 -13 3 -27 28 -34 23 -6 42 -23 42 -38 0 -16 18 -28 40 -28 27 0 40 -13 40 -40 0 -22 12 -40 28 -40 15 0 32 -18 38 -40 6 -22 25 -40 42 -40 18 0 32 -13 32 -30 0 -21 21 -30 72 -30 54 0 74 -10 82 -38 5 -21 27 -43 48 -48 22 -6 37 -23 34 -37 -4 -18 19 -29 69 -33 49 -4 75 -16 75 -35 0 -16 13 -29 29 -29 15 0 34 -18 41 -40 9 -30 30 -40 81 -40 56 0 69 -8 69 -40 0 -32 13 -40 68 -40 51 0 70 -10 78 -40 8 -31 27 -40 82 -40 51 0 72 -9 72 -30 0 -23 24 -30 100 -30 87 0 100 -5 100 -40 0 -36 13 -40 150 -40 120 0 150 -6 150 -30 0 -26 92 -30 710 -30 618 0 710 4 710 30 0 24 30 30 150 30 137 0 150 4 150 40 0 35 13 40 108 40 93 0 109 6 118 42 9 35 21 40 64 30 43 -11 55 -6 64 26 7 29 30 41 83 46 49 4 73 16 73 36 0 20 24 32 75 36 59 5 75 15 75 45 0 26 14 39 40 39 22 0 40 13 40 30 0 20 20 30 59 30 39 0 67 14 81 40 12 22 36 40 53 40 20 0 27 11 20 30 -7 16 -1 31 13 33 13 2 33 5 44 8 11 2 36 5 55 7 19 1 35 14 35 30 0 15 19 32 42 38 25 7 36 21 28 34 -8 13 3 27 26 33 22 6 45 28 50 49 6 21 25 38 42 38 18 0 32 14 32 30 0 17 14 30 32 30 17 0 36 18 42 40 6 22 23 40 38 40 16 0 28 14 28 30 0 17 14 30 30 30 17 0 40 23 50 50 11 28 31 48 45 45 16 -3 27 22 31 70 4 49 16 75 35 75 16 0 29 14 29 30 0 27 24 39 65 32 8 -1 15 16 15 38 0 27 13 40 40 40 32 0 40 13 40 68 0 42 11 72 30 79 19 7 30 38 30 82 0 58 8 71 40 71 32 0 40 13 40 70 0 57 8 70 40 70 32 0 40 13 40 70 0 49 9 70 30 70 23 0 30 26 30 112 0 95 6 113 40 122 35 9 40 27 40 146 0 119 5 137 40 146 39 10 40 27 40 712 0 689 -1 702 -40 702 -36 0 -40 13 -40 150 0 137 -4 150 -40 150 -33 0 -40 13 -40 79 0 63 -6 77 -30 68 -23 -9 -30 5 -30 61 0 59 -7 72 -40 72 -35 0 -40 13 -40 112 0 95 -6 113 -40 122 -22 6 -40 27 -40 48 0 24 -10 33 -30 25 -24 -9 -30 6 -30 71 0 69 -6 82 -40 82 -32 0 -40 13 -40 70 0 57 -8 70 -40 70 -27 0 -40 13 -40 40 0 22 -13 40 -30 40 -16 0 -30 14 -30 30 0 17 -18 30 -40 30 -32 0 -40 13 -40 70 0 57 8 70 40 70 22 0 40 13 40 30 0 24 29 30 140 30 127 0 140 4 140 40 0 27 13 40 40 40 27 0 40 13 40 40 0 27 13 40 40 40 36 0 40 13 40 150 0 137 -4 150 -40 150 -27 0 -40 13 -40 40 0 27 -13 40 -40 40 -27 0 -40 13 -40 40 0 22 -13 40 -30 40 -16 0 -30 14 -30 32 0 17 -18 36 -40 42 -22 6 -40 22 -40 36 0 14 -19 30 -43 36 -28 8 -38 22 -30 43 8 21 0 31 -25 31 -21 0 -42 18 -48 42 -7 25 -21 36 -34 28 -13 -8 -27 3 -34 28 -13 52 -246 65 -246 14 0 -15 -18 -32 -40 -38 -22 -6 -40 -25 -40 -42 0 -18 -13 -32 -30 -32 -16 0 -30 -14 -30 -32 0 -17 -18 -36 -40 -42 -52 -14 -62 -246 -10 -246 17 0 30 -13 30 -30 0 -16 -13 -30 -30 -30 -16 0 -30 -14 -30 -31 0 -23 -17 -30 -65 -25 -39 3 -63 16 -60 31 3 14 -13 25 -35 25 -27 0 -40 13 -40 40 0 33 -13 40 -80 40 -67 0 -80 7 -80 40 0 22 -12 40 -28 40 -15 0 -32 18 -38 40 -8 31 -27 40 -82 40 -51 0 -72 9 -72 30 0 23 -26 30 -110 30 -97 0 -110 5 -110 40 0 32 -13 40 -70 40 -49 0 -70 9 -70 30 0 17 -11 31 -25 33 -30 3 -111 10 -160 14 -19 2 -35 17 -35 33 0 24 -30 30 -150 30 -137 0 -150 4 -150 40 0 22 -13 40 -30 40 -20 0 -30 20 -30 60 0 40 10 60 30 60 17 0 30 17 30 39 0 30 16 40 75 45 l75 6 6 295 c5 285 4 295 -35 295 -28 0 -41 13 -41 40 0 27 -13 40 -40 40 -27 0 -40 13 -40 40 0 39 -13 40 -630 40 -617 0 -630 -1 -630 -40z"/>
  </g>
</svg>
