<svg xmlns="http://www.w3.org/2000/svg" width="64" height="64" viewBox="75 60 315 365" preserveAspectRatio="xMidYMid meet" fill="#fed120"><path d="M199 62c0 1.35-.65 2-2 2s-2 .65-2 2c0 1.1-.65 2-1.45 2-2.2 0-2.5 2.45-2.3 16.5l.25 13 3.75.3c2.95.25 3.75.75 3.75 2.25 0 1.1.7 1.95 1.5 1.95 1 0 1.5 1 1.5 3s-.5 3-1.5 3c-.85 0-1.5.9-1.5 2 0 1.8-.65 2-7.5 2-5.75 0-7.5.35-7.5 1.4 0 1.85-2.05 2.55-6.5 2.1-3-.25-3.85.05-4.25 1.6-.35 1.4-1.35 1.9-3.75 1.9-2.45 0-3.4.5-3.8 2-.4 1.65-1.35 2-5.5 2-4.1 0-5.05.35-5.5 2-.4 1.65-1.05 1.9-3.65 1.35-2.65-.5-3.25-.3-3.7 1.5-.35 1.2-1.2 2.15-1.95 2.15-.8 0-1.4.9-1.4 2 0 1.6-.65 2-3.4 2-2.55 0-3.5.5-3.9 2-.3 1.2-1.35 2-2.55 2-1.45 0-1.9.45-1.5 1.5.45 1.15-.25 1.5-3.05 1.5-2.55 0-3.6-.45-3.6-1.5a1.47 1.47 0 0 0-1.5-1.5 1.54 1.54 0 0 1-1.5-1.5c0-.85.7-1.5 1.5-1.5 2.6 0 2.1-11.6-.5-12.3-1.1-.3-2-1.25-2-2.1 0-.9-.65-1.6-1.5-1.6-.8 0-1.5-.7-1.5-1.6 0-.85-.9-1.8-2-2.1s-2-1.15-2-1.9c0-1.05-1.55-1.4-6-1.4-4.65 0-6 .35-6 1.5 0 .8-.7 1.5-1.6 1.5-.85 0-1.8.9-2.1 2s-1.1 2-1.8 2-1.5.9-1.8 2-1.25 2-2.1 2c-.9 0-1.6.65-1.6 1.5 0 .8-.65 1.5-1.45 1.5-.75 0-1.7.9-2.05 2s-1.3 2-2.05 2c-.8 0-1.45.9-1.45 2 0 1.35-.65 2-2 2s-2 .65-2 2c0 1.3-.65 2-1.85 2-1.6 0-1.9.8-1.95 5.25-.05 6.8.7 9.75 2.4 9.75.75 0 1.4.9 1.4 2 0 1.3.65 2 1.9 2 1.05 0 2.1.9 2.4 2 .45 1.75 1.35 2 7.1 2 5.2 0 6.6.3 6.6 1.5 0 .85.9 1.5 2 1.5 2.85 0 2.85 5.55 0 6.3-1.1.3-2 1.25-2 2.1 0 .9-.65 1.6-1.5 1.6s-1.5.9-1.5 2c0 1.35-.65 2-2 2-1.6 0-2 .65-2 3.4 0 2.55-.5 3.5-2 3.9-1.55.4-2 1.35-2 4.1 0 2.55-.45 3.6-1.5 3.6-.85 0-1.5.9-1.5 2.05 0 1.4-.55 1.95-1.75 1.75-1.45-.25-1.8.6-2.05 5.45-.2 4.2-.7 5.75-1.75 5.75-1.45 0-1.85 1.05-1.5 4.3.15 1.15-.6 2.05-1.85 2.4-1.6.4-2.1 1.35-2.1 3.9 0 2.75-.4 3.4-2 3.4-1.8 0-2 .65-2 7.5s-.15 7.5-2 7.5c-3.15 0-3.05 69.9.05 70.7 1.7.45 1.95 1.45 1.95 7.5 0 6.15.25 7.05 2 7.5 1.65.45 2 1.35 2 5.3 0 4 .35 4.85 2.1 5.3 1.75.5 2.05 1.15 1.7 3.75-.4 2.5-.1 3.3 1.35 3.7 1.35.35 1.85 1.4 1.85 3.85 0 2.75.4 3.4 2 3.4s2 .65 2 3.55c0 2.2.55 3.75 1.5 4.1s1.5 1.85 1.5 3.95c0 2.65.4 3.4 1.9 3.4 1.05 0 2.1.9 2.4 2s1.25 2 2.1 2c.9 0 1.6.65 1.6 1.5a1.54 1.54 0 0 0 1.5 1.5c1 0 1.5 1 1.5 3.1 0 2.25.55 3.25 2 3.6 1.1.3 2 1.35 2 2.4s.7 1.9 1.6 1.9c.85 0 1.8.85 2.1 1.9.25 1.05 1.4 2.15 2.5 2.45 1.15.3 1.7 1 1.3 1.65s.15 1.35 1.4 1.7c1.15.3 2.1 1.15 2.1 1.9 0 .8.9 1.4 2 1.4 1.35 0 2 .65 2 2 0 1.1.6 2 1.4 2 .75 0 1.6.9 1.9 2s1.25 2 2.1 2c.9 0 1.6.65 1.6 1.5 0 1.05 1.05 1.5 3.6 1.5 2.7 0 3.7.5 4.1 1.9.25 1.05 1.35 2.15 2.4 2.4 1.1.3 1.85 1.15 1.7 1.85-.2.9.95 1.45 3.45 1.65 2.45.2 3.75.8 3.75 1.75a1.45 1.45 0 0 0 1.45 1.45c.75 0 1.7.9 2.05 2 .45 1.5 1.5 2 4.05 2 2.8 0 3.45.4 3.45 2s.65 2 3.4 2c2.55 0 3.5.5 3.9 2 .4 1.55 1.35 2 4.1 2 2.55 0 3.6.45 3.6 1.5 0 1.15 1.2 1.5 5 1.5 4.35 0 5 .25 5 2 0 1.8.65 2 7.5 2 6 0 7.5.3 7.5 1.5 0 1.3 4.6 1.5 35.5 1.5s35.5-.2 35.5-1.5c0-1.2 1.5-1.5 7.5-1.5 6.85 0 7.5-.2 7.5-2 0-1.75.65-2 5.4-2 4.65 0 5.45-.3 5.9-2.1.45-1.75 1.05-2 3.2-1.5 2.15.55 2.75.3 3.2-1.3.35-1.45 1.5-2.05 4.15-2.3 2.45-.2 3.65-.8 3.65-1.8s1.2-1.6 3.75-1.8c2.95-.25 3.75-.75 3.75-2.25 0-1.3.7-1.95 2-1.95 1.1 0 2-.65 2-1.5 0-1 1-1.5 2.95-1.5s3.35-.7 4.05-2c.6-1.1 1.8-2 2.65-2 1 0 1.35-.55 1-1.5-.35-.8-.05-1.55.65-1.65.65-.1 1.65-.25 2.2-.4.55-.1 1.8-.25 2.75-.35.95-.05 1.75-.7 1.75-1.5 0-.75.95-1.6 2.1-1.9 1.25-.35 1.8-1.05 1.4-1.7s.15-1.35 1.3-1.65c1.1-.3 2.25-1.4 2.5-2.45.3-1.05 1.25-1.9 2.1-1.9.9 0 1.6-.7 1.6-1.5 0-.85.7-1.5 1.6-1.5.85 0 1.8-.9 2.1-2s1.15-2 1.9-2c.8 0 1.4-.7 1.4-1.5 0-.85.7-1.5 1.5-1.5.85 0 2-1.15 2.5-2.5.55-1.4 1.55-2.4 2.25-2.25.8.15 1.35-1.1 1.55-3.5.2-2.45.8-3.75 1.75-3.75.8 0 1.45-.7 1.45-1.5 0-1.35 1.2-1.95 3.25-1.6.4.05.75-.8.75-1.9 0-1.35.65-2 2-2 1.6 0 2-.65 2-3.4 0-2.1.55-3.6 1.5-3.95s1.5-1.9 1.5-4.1c0-2.9.4-3.55 2-3.55s2-.65 2-3.5.4-3.5 2-3.5 2-.65 2-3.5c0-2.45.45-3.5 1.5-3.5 1.15 0 1.5-1.3 1.5-5.6 0-4.75.3-5.65 2-6.1 1.75-.45 2-1.35 2-7.3s.25-6.85 2-7.3c1.95-.5 2-1.35 2-35.6 0-34.45-.05-35.1-2-35.1-1.8 0-2-.65-2-7.5s-.2-7.5-2-7.5c-1.65 0-2-.65-2-3.95 0-3.15-.3-3.85-1.5-3.4-1.15.45-1.5-.25-1.5-3.05 0-2.95-.35-3.6-2-3.6-1.75 0-2-.65-2-5.6 0-4.75-.3-5.65-2-6.1-1.1-.3-2-1.35-2-2.4 0-1.2-.5-1.65-1.5-1.25-1.2.45-1.5-.3-1.5-3.55 0-3.45-.3-4.1-2-4.1-1.6 0-2-.65-2-3.5s-.4-3.5-2-3.5c-1.35 0-2-.65-2-2 0-1.1-.65-2-1.5-2a1.54 1.54 0 0 1-1.5-1.5c0-.85-.9-1.5-2-1.5-1.6 0-2-.65-2-3.5s.4-3.5 2-3.5c1.1 0 2-.65 2-1.5 0-1.2 1.45-1.5 7-1.5 6.35 0 7-.2 7-2 0-1.35.65-2 2-2s2-.65 2-2 .65-2 2-2c1.8 0 2-.65 2-7.5s-.2-7.5-2-7.5c-1.35 0-2-.65-2-2s-.65-2-2-2-2-.65-2-2c0-1.1-.65-2-1.5-2-.8 0-1.5-.7-1.5-1.6 0-.85-.9-1.8-2-2.1s-2-1.1-2-1.8-.95-1.5-2.15-1.8c-1.4-.4-1.9-1.1-1.5-2.15s0-1.55-1.25-1.55c-1.05 0-2.1-.9-2.4-2.1-.35-1.25-1.05-1.8-1.7-1.4s-1.35-.15-1.7-1.4c-.65-2.6-12.3-3.25-12.3-.7 0 .75-.9 1.6-2 1.9s-2 1.25-2 2.1c0 .9-.65 1.6-1.5 1.6-.8 0-1.5.7-1.5 1.6 0 .85-.9 1.8-2 2.1-2.6.7-3.1 12.3-.5 12.3a1.47 1.47 0 0 1 1.5 1.5c0 .8-.65 1.5-1.5 1.5-.8 0-1.5.7-1.5 1.55 0 1.15-.85 1.5-3.25 1.25-1.95-.15-3.15-.8-3-1.55.15-.7-.65-1.25-1.75-1.25-1.35 0-2-.65-2-2 0-1.65-.65-2-4-2s-4-.35-4-2c0-1.1-.6-2-1.4-2-.75 0-1.6-.9-1.9-2-.4-1.55-1.35-2-4.1-2-2.55 0-3.6-.45-3.6-1.5 0-1.15-1.3-1.5-5.5-1.5-4.85 0-5.5-.25-5.5-2 0-1.6-.65-2-3.5-2-2.45 0-3.5-.45-3.5-1.5 0-.85-.55-1.55-1.25-1.65l-8-.7c-.95-.1-1.75-.85-1.75-1.65 0-1.2-1.5-1.5-7.5-1.5-6.85 0-7.5-.2-7.5-2 0-1.1-.65-2-1.5-2-1 0-1.5-1-1.5-3s.5-3 1.5-3c.85 0 1.5-.85 1.5-1.95 0-1.5.8-2 3.75-2.25l3.75-.3.3-14.75c.25-14.25.2-14.75-1.75-14.75-1.4 0-2.05-.65-2.05-2s-.65-2-2-2-2-.65-2-2c0-1.95-.65-2-31.5-2s-31.5.05-31.5 2zm42.8 6.65c5.55.65 6.7 2.65 1.65 2.85l-8.7.3-5.75.2v4.75c-.05 7.55-.8 9.25-4.1 9.25-3.1 0-4.1-1.9-1.15-2.1 1.65-.15 1.65-.15 0-.6-1.4-.35-1.75-1.55-1.75-5.85 0-5.15-.15-5.45-2.5-5.45-1.35 0-2.5.45-2.5 1s-.5 1-1.05 1c-.6 0-.8-.45-.45-.95.3-.55-.55-1.3-1.95-1.65-9.2-2.3 13.5-4.5 28.25-2.75zM217 86.5c0 1.9-.4 3.5-.9 3.5s-.9-1.6-.9-3.5c0-1.95.4-3.5.9-3.5s.9 1.55.9 3.5zm12 18.5c0 2.35-.45 3-2 3s-2-.65-2-3 .45-3 2-3 2 .65 2 3zm-22.95 12.75c.1 1.55.15 1.55.85-.1.65-1.75.85-1.75 2.35-.25 1.25 1.25 3.4 1.55 9.45 1.45 4.3-.1 6.55-.35 5.05-.55-6-.9-2.25-2.3 6-2.2 8.3.05 8.55.1 5.25 1.35-3.45 1.25 2.45 1.75 31 2.65 2.45.05 2.45.1-.5 1.5l-3 1.5 3.25-.55c1.95-.3 3.25-.1 3.25.55s1.15.8 2.85.45c3.75-.85 8.15.3 8.15 2.05 0 .95 1.25 1.4 4 1.4 3.25 0 4 .35 4 1.9 0 1.05.55 1.85 1.25 1.85 6.05-.25 8.55.4 9.05 2.25.4 1.55 1.35 2 4.1 2 2.55 0 3.6.45 3.6 1.5 0 .8.75 1.5 1.65 1.5s2.25.8 3.05 1.75 1.15 1.2.8.5-.15-1.25.45-1.25c.55 0 1.05.65 1.05 1.5s.9 1.5 2 1.5c1.35 0 2 .65 2 2.1 0 1.4.45 1.95 1.45 1.55 1.55-.6 3.95 1.65 2.85 2.7-1.75 1.8-8.3.65-8.3-1.45 0-1.45-.45-1.95-1.5-1.55-1 .4-1.5-.05-1.5-1.4 0-1.6-.7-1.95-4-1.95-3.35 0-4-.35-4-2 0-1.6-.65-2-3.5-2s-3.5-.4-3.5-2c0-1.75-.65-2-5.5-2-4.2 0-5.5-.35-5.5-1.5 0-1.65-5.6-2.2-6.15-.6-.5 1.3-1.4 1.35-20.6 1.2L240 133v-2.85-2.8l8.15-.2c8.6-.2 9.9-.55 9.75-2.45-.05-.85-.2-.85-.55.05-.8 1.95-18.95 1.75-19.7-.25-1-2.6-12.7-2.1-13.4.55-.3 1.25-1.05 1.85-1.9 1.55-.95-.4-1.35.3-1.35 2.35 0 1.6-.25 3.5-.55 4.3-.3.85.4 1.85 1.75 2.55 1.8.85-.65 1.05-11.45 1-7.55-.1-14.05.15-14.4.55-.4.35 1.9.65 5.05.65 8.45 0 7.85 3.35-.65 3.8-4.2.2-5.75.7-5.75 1.75 0 1.7-9.85 2.1-11.8.45-.85-.75-.95-.65-.2.2 2.65 3.2 1.15 4.8-4.5 4.8-4 0-5.5-.35-5.5-1.4 0-1.5-2.95-2.55-7.25-2.6-1.75 0-2.75-.55-2.75-1.5 0-.85.6-1.5 1.4-1.5.75 0 1.6-.9 1.9-2 .6-2.25 3.7-1.75 3.7.6 0 .75.7 1.4 1.5 1.4a1.47 1.47 0 0 1 1.5 1.5c0 .95.95 1.5 2.5 1.5 1.85 0 2.5-.55 2.5-2 0-1.35-.65-2-2-2-1.2 0-2-.65-2-1.65 0-1.35.75-1.55 4.25-1.1 2.35.3 6.5.2 9.25-.25l5-.75-4.5-.2c-2.45-.15-6.4-.15-8.75-.05-3.05.1-4.4-.3-4.85-1.4-.95-2.5-7.45-2.15-8.1.4-.4 1.5-1.35 2-3.9 2-2.75 0-3.4.4-3.4 2s-.65 2-3.4 2c-2.55 0-3.5.5-3.9 2-.3 1.1-1.25 2-2.1 2-.9 0-1.6.65-1.6 1.5 0 1.1-1.1 1.5-4 1.5s-4-.4-4-1.5c0-1.35 1.2-1.95 3.25-1.6.4.05.75-.8.75-1.9 0-1.35.65-2 2-2s2-.65 2-2.05c0-1.1.55-1.95 1.25-1.9 3.4.45 5.75-.2 5.75-1.55 0-1.05 1.05-1.5 3.6-1.5 2.75 0 3.7-.45 4.1-2 .4-1.5 1.35-2 3.9-2 2.35 0 3.4-.45 3.4-1.5 0-.85.5-1.5 1.05-1.5.6 0 .8.45.45 1s-.15 1 .45 1c.55 0 1.05-.7 1.05-1.5 0-1.1 1.1-1.5 4-1.5s4-.4 4-1.5c0-1.5 2.65-2 8.25-1.6 2.2.2 2.75-.2 2.75-1.85 0-1.8.6-2.05 5.25-2.05 2.9 0 5.95-.45 6.75-1 1.1-.7 1.15-.95.2-1-.75 0-1.05-.45-.7-1 1-1.6 2.5-1.15 2.55.75zM109.5 121c.35.55.25 1-.2 1s-1.8.3-3.05.65c-1.65.4-2.25.15-2.25-1.05 0-1.8 4.45-2.3 5.5-.6zm247.5.5c0 1-1 1.5-2.9 1.5-1.65 0-3.15-.65-3.45-1.5-.45-1.15.2-1.5 2.9-1.5 2.4 0 3.45.45 3.45 1.5zm-253 4.1c0 1 .55 1.4 1.5 1.05 1.1-.45 1.5.1 1.5 1.9s.55 2.45 2 2.45c1.6 0 2 .65 2 3.5 0 3.9-2.8 5.05-3.7 1.5-.3-1.1-1.35-2-2.4-2s-1.9-.65-1.9-1.45c0-.85-1.25-1.55-3.15-1.75-3.75-.35-5-2.7-1.95-3.5 1.15-.3 2.1-1.15 2.1-1.9 0-.8.9-1.4 2-1.4 1.15 0 2 .65 2 1.6zm257-.2c0 .75.95 1.6 2.1 1.9 3.05.8 1.8 3.15-1.95 3.5-1.9.2-3.15.9-3.15 1.75 0 .8-.9 1.45-2 1.45-1.35 0-2 .65-2 2 0 2.75-2.6 2.55-3.35-.25C349.6 132 349.9 131 352 131c1.35 0 2-.65 2-2 0-1.1.65-2 1.5-2s1.5-.7 1.5-1.5c0-.85.9-1.5 2-1.5s2 .6 2 1.4zM232.5 129c0 2.35-6.85 2.05-7.3-.3-.3-1.55.2-1.8 3.45-1.5 2.6.2 3.85.8 3.85 1.8zm42.45 5.95c3.55.05 1.3 1.8-2.95 2.3l-3.5.45 3.75.15c2.05.1 3.75.6 3.75 1.15s-.35.95-.75.9c-2.45-.4-5.25.25-5.25 1.25 0 .7 1.25.9 3.5.55 2.95-.5 3.5-.3 3.5 1.3s.9 1.95 5.25 2.2c3.75.2 5.15.7 4.95 1.65-.15.7.65 1.55 1.75 1.85 2.35.6 2.8 3.3.55 3.3a1.54 1.54 0 0 1-1.5-1.5c0-1.15-1.3-1.5-5.5-1.5-4.85 0-5.5-.25-5.5-2s-.65-2-5.5-2c-4.15 0-5.5-.35-5.5-1.45 0-1.05-1.55-1.55-5.75-1.75-9.25-.5-8.95-3.8.35-3.8 3.7 0 6.45-.25 6.15-.6-.35-.35-6.7-.6-14.15-.55-10.3.1-13.4-.2-13.05-1.15.45-1.1 9.45-1.3 35.4-.75zM122 147.5c0 .85-.9 1.5-2 1.5s-2-.65-2-1.5.9-1.5 2-1.5 2 .65 2 1.5zm48-.45c0 .6.5.75 1.15.35.7-.4.9-.25.5.35-.35.55.05 1.3.85 1.6.85.35 1.2 1.25.9 2.1-.85 2.15-2.5 1.95-3.1-.35-.25-1.05-1.35-2.15-2.4-2.4-2.5-.65-2.45-2.7.1-2.7 1.1 0 2 .5 2 1.05zm173 .45c0 .85-.9 1.5-2 1.5s-2-.65-2-1.5.9-1.5 2-1.5 2 .65 2 1.5zm-17.65 2.6c2.4-.35 2.8.15 2.3 2.65-.3 1.5-.35 2.2-.05 1.5.85-1.95 3.2-1.5 3.9.75.35 1.1 1.3 2 2.05 2 .8 0 1.45.65 1.45 1.5 0 .8-.45 1.5-.95 1.5-.55 0-.75.65-.4 1.5.3.8.05 1.5-.55 1.5s-1.1-.65-1.1-1.4-.65-1.65-1.5-1.95c-.8-.35-1.5-1.3-1.5-2.1 0-.9-.85-1.55-2-1.55s-2-.65-2-1.6c0-.85-.9-1.8-2-2.1s-2-1.1-2-1.85c0-1.6 2.3-2.5 3.1-1.2.35.5.9.9 1.25.85zm-185.1-.5c1.15 1.15-.45 3.4-2.4 3.4-1.15 0-1.7.45-1.3 1.05.35.6-.3 1.35-1.45 1.65s-2.1 1.3-2.1 2.25c0 1.3-.9 1.75-3.5 1.85-2.9.1-3.5-.2-3.5-1.95 0-1.5.45-1.9 1.6-1.45 1.05.4 1.75-.05 2.1-1.4.3-1.1 1.1-2 1.8-2s1.5-.9 1.8-2c.5-1.95 5.45-2.95 6.95-1.4zm21 7.35c2.8.25.25 3.05-2.75 3.05-2.45 0-3.5.45-3.5 1.5 0 .8-.65 1.5-1.5 1.5-1.85 0-1.95-1.6-.15-2.7.7-.45 1.6-1.6 1.95-2.55.4-1.15 1.4-1.6 2.9-1.3l3.05.5zM306 158.5c0 1.05-1.05 1.5-3.5 1.5s-3.5-.45-3.5-1.5 1.05-1.5 3.5-1.5 3.5.45 3.5 1.5zM126 162c0 1.35-.65 2-2 2s-2-.65-2-2 .65-2 2-2 2 .65 2 2zm99 3.75v5.75l3.75-.1c7.5-.15 7.25.1 7.25-5.9V160h9c8.35 0 9 .15 9 2 0 1.8.65 2 7.5 2 6.8 0 7.5.2 7.5 2 0 1.25.6 1.9 1.75 1.85 4.05-.35 6.25.25 6.25 1.65 0 1.05 1.05 1.5 3.5 1.5s3.5.45 3.5 1.5c0 .85-.9 1.5-2 1.5-1.65 0-2 .65-2 4 0 3.3.35 4 1.9 4 1.05 0 2.7.3 3.6.65 1.1.4 1.8-.05 2.15-1.45.3-1.1 1.4-2.25 2.45-2.5 1.05-.3 1.9-1.25 1.9-2.1 0-.9.7-1.6 1.5-1.6.85 0 1.5.9 1.5 2 0 1.6.65 2 3.5 2 2.45 0 3.5.45 3.5 1.5 0 .85.9 1.5 2 1.5 1.35 0 2 .65 2 2s.65 2 2 2 2 .65 2 2c0 1.1.65 2 1.5 2a1.47 1.47 0 0 1 1.5 1.5c0 .85.9 1.5 2 1.5 1.35 0 2 .65 2 2s.65 2 2.05 2c1.1 0 1.95.55 1.9 1.25-.35 2.45.2 6.25.7 5 .95-2.3 2.35-1.25 2.35 1.75 0 2 .5 3 1.5 3 .85 0 1.5.55 1.5 1.25s.3 2.25.65 3.5c.55 2.05.25 2.25-3.55 2.25-3.45 0-4.1.3-4.1 2 0 1.6-.65 2-3.5 2-2.3 0-3.5.45-3.5 1.4 0 .75-.9 1.6-2 1.9-1.55.4-2 1.35-2 4.1 0 2.55-.45 3.6-1.5 3.6s-1.5 1.05-1.5 3.5c0 2.85-.4 3.5-2 3.5-1.35 0-2 .65-2 2s-.65 2-2 2c-1.6 0-2 .65-2 3.5 0 2.45-.45 3.5-1.5 3.5s-1.5 1.05-1.5 3.4c0 2.55-.5 3.5-2 3.9-1.1.3-2 1.25-2 2.1 0 .9-.65 1.6-1.5 1.6-1.3 0-1.5-2.9-1.5-20v-20h-9.5-9.5v7.5c0 6.85.2 7.5 2 7.5 1.1 0 2 .65 2 1.5s-.9 1.5-2 1.5c-1.35 0-2 .65-2 2s-.65 2-2 2c-1.1 0-2 .65-2 1.5 0 .8-.65 1.5-1.5 1.5-1.1 0-1.5 1.1-1.5 4s-.4 4-1.5 4c-1.15 0-1.5-1.25-1.5-5.25-.05-6.65-.85-9.75-2.6-9.75-.95 0-1.4-1.2-1.4-3.5 0-2.45.45-3.5 1.5-3.5s1.5-1.05 1.5-3.5c0-2.8.4-3.5 1.95-3.5 1.5 0 2-.8 2.25-3.75.2-2.55.8-3.75 1.8-3.75s1.6-1.2 1.8-3.75c.25-2.95.75-3.75 2.25-3.75 1.55 0 1.95-.7 1.95-3.5 0-2.45.45-3.5 1.5-3.5 1.1 0 1.5-1.1 1.5-4 0-3.35-.35-4-2-4-1.35 0-2 .65-2 2s-.65 2-2 2c-1.6 0-2 .65-2 3.5 0 2.45-.45 3.5-1.5 3.5-.85 0-1.5.9-1.5 2 0 1.35-.65 2-2 2-1.1 0-2 .65-2 1.5s-.9 1.5-2 1.5c-1.65 0-2 .65-2 4 0 3.4-.3 4-2.1 4-1.45 0-1.95.45-1.55 1.5.4 1-.05 1.5-1.4 1.5-1.05 0-1.95-.65-1.95-1.5 0-1.05-1.05-1.5-3.5-1.5-2.85 0-3.5-.4-3.5-2 0-1.35-.65-2-2-2-1.1 0-2-.65-2-1.5s.9-1.5 2-1.5c1.35 0 2-.65 2-2s.65-2 2-2c1.6 0 2-.65 2-3.5 0-2.45.45-3.5 1.5-3.5.85 0 1.5-.9 1.5-2 0-1.35-.65-2-2-2-1.1 0-2 .65-2 1.5 0 .8-.7 1.5-1.6 1.5-.85 0-1.8.9-2.1 2s-1.15 2-1.9 2c-.8 0-1.4.9-1.4 2 0 1.35-.65 2-2 2-1.1 0-2 .6-2 1.4 0 .75-.95 1.6-2.1 1.9-1.65.45-2 1.2-1.75 3.8.4 3.7-1.95 5.35-2.85 2-.8-3.1-11.3-3.2-11.3-.1 0 1.65-.65 2-4 2-2.9 0-4 .4-4 1.5 0 .8-.65 1.5-1.5 1.5s-1.5.9-1.5 2c0 1.35-.65 2-2 2s-2 .65-2 2-.65 2-2 2c-1.6 0-2 .65-2 3.5 0 2.45-.45 3.5-1.5 3.5-1.25 0-1.5 2.1-1.5 13s.25 13 1.5 13c1.05 0 1.5 1.05 1.5 3.5s-.45 3.5-1.5 3.5c-1.1 0-1.5 1.1-1.5 4 0 3.35-.35 4-2 4-1.6 0-2 .65-2 3.5s-.4 3.5-2 3.5-2 .65-2 3.5c0 2.45-.45 3.5-1.5 3.5-1.3 0-1.5-4.7-1.5-36.5V219h-9.5c-7.8 0-9.5.25-9.5 1.5 0 .8-.65 1.5-1.5 1.5s-1.5.9-1.5 2c0 1.35-.65 2-2 2s-2 .65-2 2-.65 2-2 2c-1.1 0-2 .65-2 1.5 0 .8-.65 1.5-1.5 1.5s-1.5.9-1.5 2c0 1.65-.65 2-4 2h-4v7.5 7.5h7.5c6 0 7.5-.3 7.5-1.5 0-.85.9-1.5 2-1.5 2 0 2.05.5 1.95 38.25l-.05 38.25 11.05.3 11.05.25v-8c0-7.4-.15-8.05-2-8.05-1.35 0-2 .65-2 2 0 1.1-.65 2-1.5 2-1.2 0-1.5-1.45-1.5-7s.3-7 1.5-7c1.1 0 1.5 1.1 1.5 4 0 3.35.35 4 2 4s2-.65 2-4 .35-4 2-4c1.1 0 2-.6 2-1.4 0-.75.8-1.6 1.8-1.85 1.45-.35 1.75-1.2 1.4-4.1-.35-3.2-.15-3.65 1.7-3.65 1.95 0 2.1.55 2.1 7.5 0 6.85.2 7.5 2 7.5 1.35 0 2-.65 2-2 0-1.1.65-2 1.5-2 1.05 0 1.5 1.05 1.5 3.5 0 2.85-.4 3.5-2 3.5s-2 .65-2 3.5c0 2.45-.45 3.5-1.5 3.5-1.1 0-1.5 1.1-1.5 4 0 3.35-.35 4-2 4-1.6 0-2 .65-2 3.5s-.4 3.5-2 3.5-2 .65-2 3.5c0 2.45-.45 3.5-1.5 3.5-1.1 0-1.5 1.1-1.5 4 0 3.35.35 4 2 4 1.6 0 2-.65 2-3.4 0-2.6.5-3.5 2.1-3.9 1.25-.35 1.8-1.05 1.4-1.7s.15-1.35 1.4-1.7c1.6-.4 2.1-1.3 2.1-3.9 0-2.75.4-3.4 2-3.4 1.35 0 2-.65 2-2s.65-2 2-2c1.1 0 2-.65 2-1.5s.7-1.5 1.5-1.5a1.47 1.47 0 0 1 1.5 1.5c0 1.05 1.05 1.5 3.5 1.5 2.85 0 3.5.4 3.5 2 0 1.35.65 2 2.1 2 1.25 0 2.3-.8 2.6-2 .85-3.25 2.3-2.3 2.3 1.5 0 2.45-.45 3.5-1.5 3.5-.85 0-1.5.9-1.5 2 0 1.35-.65 2-2 2s-2 .65-2 2c0 1.3.65 2 1.9 2 1.05 0 2.1-.9 2.4-2s1.25-2 2.1-2c.9 0 1.6-.7 1.6-1.5 0-.85.9-1.5 2-1.5 1.65 0 2-.65 2-4 0-2.9.4-4 1.5-4 .85 0 1.5.9 1.5 2 0 1.8.65 2 7.5 2s7.5-.2 7.5-2c0-1.6.65-2 3.5-2 2.45 0 3.5-.45 3.5-1.5 0-.85.9-1.5 2-1.5 1.35 0 2-.65 2-2s.65-2 2-2c1.75 0 2-.65 2-5.4 0-4.4.35-5.45 1.9-5.85 2.95-.8 3-25.75.05-25.75-1.3 0-1.95-.7-1.95-2.1 0-1.45.45-1.95 1.5-1.55 1.2.45 1.5-.25 1.5-3.4 0-3.3.35-3.95 2-3.95 1.6 0 2-.65 2-3.5s.4-3.5 2-3.5c1.65 0 2-.65 2-4 0-2.9.4-4 1.5-4 1.3 0 1.5 4.8 1.5 37v37h9.5 9.45l.3-20.15c.2-15.05.55-20.3 1.5-20.6.75-.25 1.25.45 1.25 1.65 0 1.45.65 2.1 2 2.1s2 .65 2 2c0 1.1.65 2 1.5 2 1.05 0 1.5 1.05 1.5 3.5 0 2.85.4 3.5 2 3.5 1.35 0 2 .65 2 2s.65 2 2.05 2c1.1 0 1.95.55 1.9 1.25-.5 3.5.2 5.75 1.65 5.75 1.3 0 1.55.9 1.25 4.3-.35 4.05-.2 4.3 1.9 3.9 2-.4 2.25-.05 2.25 3.2 0 3.45.15 3.6 3.5 3.6 2.85 0 3.5.4 3.5 2 0 1.8 2.8 2.65 7.1 2.15.35 0 .65 1.3.7 2.9.05 2.3-.35 2.95-1.85 2.95-1.3 0-1.95.7-1.95 2 0 1.35-.65 2-2 2s-2 .65-2 2-.65 2-2.1 2-1.95.45-1.55 1.5c.45 1.1-.1 1.5-1.9 1.5-1.35 0-2.4.35-2.35.75.35 2.05-.25 3.25-1.6 3.25-.85 0-1.5.9-1.5 2s-.65 2-1.5 2c-.8 0-1.5.65-1.5 1.5 0 1.15-1.4 1.55-6.25 1.65-3.45.05-5.25.3-4 .55 2.7.55 3 3.3.35 3.3-1.15 0-1.8.65-1.75 1.65.1.9-.4 1.85-1.1 2.1-.75.25-1.25-.45-1.25-1.65 0-1.35-.65-2.1-1.8-2.1-1.3 0-2.15-1.1-2.75-3.7-.9-3.45-1.05-3.55-2.65-2-.9.95-2.35 1.7-3.25 1.7-1.15 0-1.55 1.1-1.55 4.5 0 3.7.3 4.5 1.85 4.5 4.95 0 2.35 6-2.65 6.15-2.95.1-3.7.3-1.95.55 1.5.25 2.75.85 2.75 1.35 0 1.1.25 1.05-7.75 1.2-3.45.05-6.25.45-6.25.9s.7.85 1.5.85c.85 0 1.5.45 1.5 1 0 1-3.05 1.35-8.25 1.05-2.15-.15-2.75.25-2.75 1.85 0 2-.55 2.1-10.95 2.1h-10.9l.05-4.75c.15-7.75-.1-9.25-1.7-9.25-.8 0-1.5.65-1.5 1.5 0 1.05-1.1 1.5-3.75 1.5-2.8-.05-3.35-.3-2.25-1 .9-.6 1-1 .3-1-2 0-2.65 2.1-2.4 7.65l.2 5.35h-11.05c-10.4 0-11.05-.1-11.05-2 0-1.75-.65-2-5.5-2s-5.5-.25-5.5-2c0-1.8-5.25-2.9-10.25-2.1-.4.05-.75-.35-.75-.9s1.15-1 2.5-1c1.4 0 2.5-.5 2.5-1.1 0-.75-1.45-.9-4.5-.45-2.45.35-4.5.3-4.5-.15.05-2.9 1.5-5.3 3.1-5.3 1.05 0 1.9-.5 1.9-1.1 0-.85.4-.8 1.4.05 1.2.95 1.35.8.9-.95-.35-1.25-1.1-1.9-1.95-1.6-.95.4-1.35-.35-1.35-2.45 0-2.75-.3-2.95-3.75-3.05-2.05 0-4.55-.2-5.5-.4-.95-.15-1.75.15-1.75.7s.7.75 1.5.45c1-.4 1.5.05 1.5 1.4 0 1.3-.7 1.95-2 1.95-1.4 0-2 .7-2.05 2.25l-.05 2.25-1.55-2.25c-.9-1.25-2.2-2.25-2.95-2.25-.8 0-1.4-.9-1.4-2 0-1.65-.65-2-4-2-3.3 0-4-.35-4-1.95 0-1.45-.45-1.8-1.65-1.35-1.35.5-1.55.2-1.1-1.55s.15-2.15-1.85-2.15c-3.05 0-3.2-2.7-.15-3.3 1.25-.25.3-.5-2.05-.55-2.8-.1-4.1-.55-3.65-1.2.35-.6-.3-1.35-1.45-1.65-1.2-.3-2.1-1.35-2.1-2.4 0-1.25-.7-1.9-2-1.9s-2-.65-2-1.9c0-1.05-.7-2.15-1.5-2.45-3.35-1.3-1.8-5.65 2-5.65h3.5v-5.25c-.05-6.15-.85-9.75-2.2-9.75-.55 0-.75.65-.45 1.5.35.8.2 1.5-.25 1.5-.5 0-1.1.85-1.35 1.85C136 322.7 126 322.9 126 320c0-1.3-.65-2-1.9-2-1.6 0-1.85-.7-1.7-5.45.15-4.8-.1-5.5-1.85-5.75-2.2-.3-2.25-.5-2.45-9.05-.05-4.4-.45-5.75-1.6-5.75-2 0-2.2-12.9-.25-13.15.7-.1 1.7-.25 2.25-.4.55-.1 3.4-.25 6.3-.35l5.3-.1-.3-5.75-.3-5.75-7.25-.3-7.25-.3v-6.95c0-5.5.3-6.95 1.5-6.95 1.55 0 1.9-2.85 1.5-11.4-.15-3.5.05-3.8 1.9-3.35 1.95.5 2.1.15 2.1-4.85 0-4.75.25-5.4 2-5.4 1.65 0 2-.65 2-4 0-3.9.1-4 3.5-4 2.85 0 3.5.4 3.5 2 0 1.65.65 2 4 2h4v-4c0-3.25-.35-4-1.9-4-3.4 0-3.45-9.4-.05-10.3 1.5-.4 1.95-1.4 1.95-4.1 0-2.55.45-3.6 1.5-3.6.85 0 1.5-.9 1.5-2 0-1.35.65-2 2-2 1.1 0 2-.6 2-1.4 0-.75.95-1.6 2.1-1.9 1.25-.35 1.8-1.05 1.4-1.7s.15-1.35 1.4-1.7c1.2-.3 2.1-1.35 2.1-2.4 0-1.25.7-1.9 2.05-1.9 1.1 0 2.25-.6 2.55-1.35 1.1-2.9 13.4-2.95 13.4-.1 0 2 1.45 2.5 4.9 1.8 3.5-.7 4.95-8.35 1.6-8.35a1.54 1.54 0 0 1-1.5-1.5c0-1.05 1.05-1.5 3.5-1.5s3.5-.45 3.5-1.5 1.05-1.5 3.5-1.5c2.85 0 3.5-.4 3.5-2 0-1.8.65-2 7.5-2s7.5-.2 7.5-2c0-1.85.65-2 9-2h9v5.75zm113.55-4.65c1.05 1.65-1.3 3.55-2.65 2.2-1.15-1.15-.45-3.3 1.1-3.3.5 0 1.2.5 1.55 1.1zm-216.2 3.65c1.1 1.8-.65 6.25-2.45 6.25-1.25 0-1.9.7-1.9 2.05 0 1.15-.45 1.8-.95 1.5-.55-.35-.7-1.25-.4-2.1.3-.8.05-1.45-.55-1.45s-1.1-.7-1.1-1.5c0-.85.7-1.5 1.5-1.5.85 0 1.5-.9 1.5-2 0-1.95 3.3-2.9 4.35-1.25zM343 166c0 1.1.65 2 1.5 2s1.5.6 1.5 1.4c0 .75.9 1.6 2 1.9s2 1.3 2 2.2c0 1.3-.55 1.6-2.25 1.15-1.25-.35-2.8-.65-3.5-.65s-1.25-.7-1.25-1.5c0-.85-.6-1.5-1.4-1.5-1.25 0-2.55-2.85-2.6-5.75 0-.7.9-1.25 2-1.25 1.35 0 2 .65 2 2zm-213 3.5c0 .85-.9 1.5-2 1.5s-2-.65-2-1.5.9-1.5 2-1.5 2 .65 2 1.5zm17 0c0 .8-.65 1.5-1.5 1.5-.8 0-1.5.65-1.5 1.5 0 .8-.65 1.5-1.5 1.5a1.54 1.54 0 0 1-1.5-1.5c0-.85.7-1.5 1.5-1.5.85 0 1.5-.7 1.5-1.5 0-.85.7-1.5 1.5-1.5a1.47 1.47 0 0 1 1.5 1.5zm185 0c0 .85-.9 1.5-2 1.5s-2-.65-2-1.5.9-1.5 2-1.5 2 .65 2 1.5zm-217 2.75c-.05 2.9-1.35 5.75-2.6 5.75-.8 0-1.4.9-1.4 2 0 1.35-.65 2-2 2-1.6 0-2 .65-2 3.5s-.4 3.5-2 3.5c-1.35 0-2 .65-2 2 0 1.1-.65 2-1.5 2-1.05 0-1.5 1.05-1.5 3.5 0 2.85-.4 3.5-2 3.5-1.65 0-2 .65-2 4 0 2.9-.4 4-1.5 4s-1.5-1.1-1.5-4c0-2.75.45-4 1.4-4 1.5 0 2.55-2.95 2.6-7.25 0-1.75.55-2.75 1.5-2.75.85 0 1.5-.9 1.5-2 0-1.35.65-2 2-2 1.6 0 2-.65 2-3.4 0-2.6.5-3.5 2.15-3.9 1.4-.4 1.9-1.1 1.5-2.15-.4-1.1 0-1.55 1.4-1.55 1.3 0 1.95-.7 1.95-2 0-1.35.65-2 2-2 1.1 0 2 .55 2 1.25zM353 177c0 1.35.65 2 2 2 1.6 0 2 .65 2 3.25 0 1.8.45 3.9 1 4.75.7 1.1.95 1.15 1 .2 0-.75.45-1.05 1-.7 1.65 1 1.2 6.5-.5 6.5-.85 0-1.5-.9-1.5-2 0-1.35-.65-2-2.15-2-1.9 0-2.05-.4-1.6-4.65.3-2.55.2-4.05-.25-3.35-1.3 2.15-3.55.45-3.8-2.9-.15-2.2.2-3.1 1.3-3.1.85 0 1.5.9 1.5 2zm-216.25 3.25c-.65 1.9-3.75 2.15-3.75.3 0-.9.85-1.55 2.1-1.55 1.2 0 1.9.5 1.65 1.25zm227.7 16.25c.4 2.1 1.2 3.5 2.1 3.5 1.05 0 1.45 1.15 1.45 4 0 2.9-.4 4-1.5 4s-1.5-1.1-1.5-4-.4-4-1.5-4c-1.05 0-1.5-1.05-1.5-3.5 0-1.95.4-3.5.9-3.5s1.15 1.55 1.55 3.5zM92 211.5c0 2.45-.45 3.5-1.5 3.5-1.1 0-1.5 1.1-1.5 4 0 3.35-.35 4-2 4-1.55 0-1.95.6-1.8 2.75.5 7.95-.15 11.25-2.3 11.25-1.7 0-2-.45-1.55-2.25.35-1.25.65-4.4.65-7 0-3.35.4-4.75 1.4-4.75 1.35 0 2.6-4.1 2.6-8.65 0-1.35.6-2.35 1.4-2.35.75 0 1.6-.9 1.9-2 .85-3.3 2.7-2.25 2.7 1.5zm280 .05c0 1.7.4 2.3 1.15 1.85.7-.45.9-.25.45.45-1.55 2.5-4.6 1.3-4.6-1.85 0-2 .5-3 1.5-3 .95 0 1.5.95 1.5 2.55zM110.5 213c.75 1.2-1.9 5.25-2.85 4.35-.35-.4-.65-1.75-.65-3 0-2.4 2.3-3.25 3.5-1.35zm265.05 8.75c-.3.7-.95 1.25-1.5 1.25-1.2 0-1.45-6.25-.3-7.4.85-.9 2.4 4.4 1.8 6.15zM236 219c0 2-.5 3-1.5 3s-1.5-1-1.5-3 .5-3 1.5-3 1.5 1 1.5 3zm-129 2.05c0 2.6-3.3 2.3-3.8-.3-.25-1.2.3-1.75 1.75-1.75 1.4 0 2.05.65 2.05 2.05zm250 .95c0 2-.5 3-1.5 3s-1.5-1-1.5-3 .5-3 1.5-3 1.5 1 1.5 3zm-136 4.5c0 2.9-.35 3.5-2.1 3.5-1.45 0-1.95.45-1.55 1.5.4 1-.05 1.5-1.4 1.5-1.5 0-1.95-.7-1.95-3 0-2.35.45-3 2-3 1.35 0 2-.65 2-2 0-1.1.65-2 1.5-2 1.05 0 1.5 1.05 1.5 3.5zm11 0c0 2.45-.45 3.5-1.5 3.5s-1.5-1.05-1.5-3.5.45-3.5 1.5-3.5 1.5 1.05 1.5 3.5zm14.8-.35c-.45 4.6-2.8 4.95-2.8.45 0-2.6.45-3.6 1.55-3.6 1.15 0 1.5.85 1.25 3.15zm37.2.35c0 3.85-2.4 4.95-3.3 1.5-.3-1.1-1.25-2-2.1-2-.9 0-1.6-.7-1.6-1.5 0-1.05 1.05-1.5 3.5-1.5 3.35 0 3.5.15 3.5 3.5zm51-1.5c0 1.35.65 2 2 2 1.75 0 2 .65 2 5s.25 5 2 5c1.8 0 2 .65 2 7.5 0 6 .3 7.5 1.5 7.5s1.5 1.45 1.5 7v7h-7-7v4.4c0 2.45-.25 5.15-.6 5.95-.5 1.3.65 1.6 6.75 1.85l7.35.3.3 6.75c.25 5.55 0 6.75-1.25 6.75-1.05 0-1.6 1.05-1.65 3.25-.1 3.45-.55 9.75-.75 11-.1.4-.8.75-1.65.75-1.4 0-2.1 3.95-1.55 9.2.15 1.4-.6 1.7-3.4 1.6-3.35-.1-3.55-.35-3.55-3.45 0-2.4-.45-3.35-1.6-3.35-.85 0-1.8-.9-2.1-2s-1.15-2-1.9-2c-.95 0-1.4-1.2-1.4-3.5 0-2.85-.4-3.5-2-3.5-1.35 0-2-.65-2-2s-.65-2-2-2c-1.6 0-2-.65-2-3.5 0-2.45-.45-3.5-1.5-3.5-.85 0-1.5-.9-1.5-2 0-1.35-.65-2-2-2-1.6 0-2-.65-2-3.5s-.4-3.5-2-3.5c-1.35 0-2-.65-2-2 0-1.1-.65-2-1.5-2-1.05 0-1.5-1.05-1.5-3.5 0-2.3.45-3.5 1.4-3.5.75 0 1.6-.9 1.9-2s1.25-2 2.1-2c1.15 0 1.6-.95 1.6-3.5 0-2.45.45-3.5 1.5-3.5.85 0 1.5-.7 1.5-1.6 0-.85.9-1.8 2-2.1 1.5-.4 2-1.35 2-3.9 0-2.75.4-3.4 2-3.4 1.35 0 2-.65 2-2s.65-2 2-2c1.6 0 2-.65 2-3.5 0-2.45.45-3.5 1.5-3.5.85 0 1.5-.9 1.5-2 0-1.35.65-2 2-2 1.6 0 2-.65 2-3.5 0-2.45.45-3.5 1.5-3.5.85 0 1.5.9 1.5 2zm44 5c0 5.55-.3 7-1.5 7s-1.5-1.45-1.5-7 .3-7 1.5-7 1.5 1.45 1.5 7zm-102-1.5a1.54 1.54 0 0 0 1.5 1.5c1.05 0 1.5 1.05 1.5 3.5s-.45 3.5-1.5 3.5c-.85 0-1.5-.9-1.5-2 0-1.35-.65-2-2-2-1.55 0-2-.65-2-3s.45-3 2-3c1.1 0 2 .65 2 1.5zm-48.3 3.5c.3 1.1 1.15 2 1.9 2 .8 0 1.4.65 1.4 1.4 0 2.35 3.1 2.85 3.7.6.6-2.3 3.3-2.75 3.3-.5 0 .8-.65 1.5-1.5 1.5-1.05 0-1.5 1.05-1.5 3.5 0 2.85-.4 3.5-2 3.5-1.35 0-2 .65-2 2 0 1.1-.65 2-1.5 2-.8 0-1.5.7-1.5 1.6 0 .85-.9 1.8-2 2.1-1.5.4-2 1.35-2 3.9 0 2.75-.4 3.4-2 3.4-1.35 0-2 .65-2 2 0 1.1-.65 2-1.5 2-1.05 0-1.5 1.05-1.5 3.5 0 2.85-.4 3.5-2 3.5-1.75 0-2 .65-2 5.4 0 4.55-.3 5.45-2 5.9-1.1.3-2 1.25-2 2.1 0 .9-.65 1.6-1.5 1.6-1.15 0-1.5-1.3-1.5-5.5 0-4.85-.25-5.5-2-5.5-1.1 0-2-.65-2-1.5s.9-1.5 2-1.5c1.65 0 2-.65 2-4s.35-4 2-4c1.75 0 2-.55 1.65-3.5-.3-2.9-.05-3.5 1.5-3.5 1.45 0 1.85-.75 1.85-3.6 0-2.75.45-3.7 2-4.1 1.1-.3 2-1.15 2-1.9 0-.8.9-1.4 2-1.4 1.65 0 2-.65 2-3.95 0-3.15.3-3.85 1.5-3.4 1.15.45 1.5-.25 1.5-2.9 0-4.9 2.65-6.85 3.7-2.75zM81 270.95c0 33.15.45 38.1 3.1 33.95.55-.85.9 2.2.9 7.85 0 7.55-.25 9.25-1.5 9.25-1.2 0-1.5-1.5-1.5-7.5 0-5.75-.35-7.5-1.4-7.5-.8 0-1.6-1.4-1.9-3.25-.8-4.95-.85-65.25-.05-66.05 2.05-2.05 2.35 2.15 2.35 33.25zm129-30.45c0 2.55-.45 3.5-1.6 3.5-.85 0-1.8.9-2.1 2-.9 3.45-3.3 2.35-3.3-1.5 0-2.85.4-3.5 2-3.5 1.1 0 2-.65 2-1.4 0-1.2.8-1.9 2.75-2.5.15-.05.25 1.45.25 3.4zm172.8 31.25c-.25 30.1-.5 34.75-1.8 34.75-1.15 0-1.55 1.6-1.8 7.15-.45 11.65-3.2 11.05-3.2-.7 0-8.3.15-8.95 2-8.95 1.95 0 2-.65 2-33.5 0-29.65.2-33.5 1.55-33.5 1.4 0 1.55 3.85 1.25 34.75zM254 240.9c0 2.05-.6 3-2 3.4-1.1.3-2 1.25-2 2.1 0 .9-.65 1.6-1.5 1.6-2.45 0-2-6.05.5-6.7 1.1-.3 2-1.15 2-1.9 0-.8.7-1.4 1.5-1.4 1 0 1.5 1 1.5 2.9zm22 .1c0 2-.5 3-1.5 3s-1.5-1-1.5-3 .5-3 1.5-3 1.5 1 1.5 3zm-3 7.5c0 2.45-.45 3.5-1.5 3.5s-1.5-1.05-1.5-3.5.45-3.5 1.5-3.5 1.5 1.05 1.5 3.5zm-70.2 3.65c-.45 4.6-2.8 4.95-2.8.45 0-2.6.45-3.6 1.55-3.6 1.15 0 1.5.85 1.25 3.15zm44 0c-.45 4.6-2.8 4.95-2.8.45 0-2.6.45-3.6 1.55-3.6 1.15 0 1.5.85 1.25 3.15zM199 259.5c0 2.45-.45 3.5-1.5 3.5s-1.5-1.05-1.5-3.5.45-3.5 1.5-3.5 1.5 1.05 1.5 3.5zm44 2c0 4.85.25 5.5 2 5.5 1.6 0 2-.65 2-3.5s.4-3.5 2-3.5c1.55 0 2 .65 2 3.1 0 2.25-.55 3.25-2 3.6-1.1.3-2 1.15-2 1.9 0 .8-.9 1.4-2 1.4-1.65 0-2 .65-2 4s-.35 4-2 4c-1.1 0-2 .65-2 1.5 0 .8-.65 1.5-1.5 1.5-1.05 0-1.5 1.05-1.5 3.6 0 2.75-.45 3.7-2 4.1-1.5.4-2 1.35-2 3.8s-.5 3.4-2 3.8c-1.65.45-2 1.35-2 5.6 0 3.85-.35 5.1-1.5 5.1-1.05 0-1.5 1.05-1.5 3.5s-.45 3.5-1.5 3.5-1.5-1.05-1.5-3.5c0-2.85-.4-3.5-2-3.5-1.35 0-2-.65-2-2s-.65-2-2-2-2 .65-2 2c0 1.1-.65 2-1.5 2-1.05 0-1.5-1.05-1.5-3.5s.45-3.5 1.5-3.5c1.55 0 1.85-.9 1.55-4.75-.15-1.65.35-2.25 1.9-2.25 1.4 0 2.05-.65 2.05-2s.65-2 2-2 2-.65 2-2c0-1.1.65-2 1.5-2 1.05 0 1.5-1.05 1.5-3.5 0-2.85.4-3.5 2-3.5 1.35 0 2-.65 2-2s.65-2 2-2c1.6 0 2-.65 2-3.5 0-2.45.45-3.5 1.5-3.5s1.5-1.05 1.5-3.4c0-2.55.5-3.5 2-3.9 1.1-.3 2-1.25 2-2.1 0-.9.7-1.6 1.5-1.6 1.15 0 1.5 1.3 1.5 5.5zM89 269c0 1.1-.65 2-1.5 2s-1.5-.9-1.5-2 .65-2 1.5-2 1.5.9 1.5 2zm114 9.1c0 1.9-.5 2.9-1.5 2.9-1.05 0-1.5-1.05-1.5-3.45 0-2.7.35-3.35 1.5-2.9.85.3 1.5 1.8 1.5 3.45zm51 3.4c0 2.45-.45 3.5-1.5 3.5s-1.5-1.05-1.5-3.5.45-3.5 1.5-3.5 1.5 1.05 1.5 3.5zm-48 7c0 2.45-.45 3.5-1.5 3.5-1 0-1.5-1-1.5-2.9 0-2.45.6-3.35 2.75-4 .15-.05.25 1.45.25 3.4zm41 4c0 2.85-.4 3.5-2 3.5s-2 .65-2 3.5c0 2.55-.45 3.5-1.6 3.5-.85 0-1.8.9-2.1 2s-1.1 2-1.8 2-1.5.95-1.8 2.1c-.8 2.95-2.7 1.4-2.7-2.15 0-1.95.5-2.95 1.5-2.95.85 0 1.5-.9 1.5-2 0-1.35.65-2 2-2 1.6 0 2-.65 2-3.5s.4-3.5 2-3.5c1.35 0 2-.65 2-2 0-1.1.65-2 1.5-2 1.05 0 1.5 1.05 1.5 3.5zm-66.2 3.65c-.45 4.45-2.5 4.75-3 .4-.35-2.95-.1-3.55 1.45-3.55 1.5 0 1.8.65 1.55 3.15zm22 0c-.45 4.6-2.8 4.95-2.8.45 0-2.6.45-3.6 1.55-3.6 1.15 0 1.5.85 1.25 3.15zm158.2 4.9c0 1.15-.45 1.8-1 1.45s-1-.2-1 .35.55 1.15 1.2 1.4c1.3.4.25 2.75-1.25 2.75-1.05 0-1.3-6.3-.3-7.35 1.3-1.25 2.35-.65 2.35 1.4zM210 309c0 1.1-.65 2-1.5 2-1.5 0-2.05-2.1-.85-3.35 1.3-1.25 2.35-.65 2.35 1.35zm-4 5.5c0 2.45-.45 3.5-1.5 3.5s-1.5-1.05-1.5-3.5.45-3.5 1.5-3.5 1.5 1.05 1.5 3.5zm15 4c0 2.45-.45 3.5-1.5 3.5s-1.5-1.05-1.5-3.5.45-3.5 1.5-3.5 1.5 1.05 1.5 3.5zm7 .1c0 4.45-2.25 4.15-2.75-.4-.25-2.4.05-3.2 1.2-3.2 1.1 0 1.55 1 1.55 3.6zm125.55 3.6c.2 1.55-.3 2.85-1.1 3.2-1.9.7-2.65-.8-1.85-3.9.8-3.2 2.6-2.8 2.95.7zM88 327.5c0 2.45-.45 4.5-1 4.5s-1-2.05-1-4.5c0-2.5.45-4.5 1-4.5s1 2 1 4.5zm262 3.5c0 1.35-.65 2-2 2-1.6 0-2 .65-2 3.5 0 2.45-.45 3.5-1.5 3.5-.85 0-1.5.9-1.5 2 0 1.35-.65 2-2 2s-2 .65-2 2c0 1.1-.65 2-1.5 2s-1.5-.9-1.5-2 .65-2 1.5-2 1.5-.7 1.5-1.6c0-.85.9-1.8 2-2.1s2.05-1.25 2.1-2.15c.25-3.65.45-4.25 1.45-4.95.6-.4 1.4-1.5 1.75-2.45.9-2.4 3.7-2.2 3.7.25zm-258 5.65c0 4.35-1.65 3.55-2.2-1.05-.25-2.45 0-3.25.9-2.9.7.3 1.3 2.05 1.3 3.95zm279.45-.95c-.05 2.05-.65 3.85-1.3 4.1-1.6.5-1.5-6.5.1-7.15.7-.25 1.25-.55 1.3-.55.05-.05 0 1.55-.1 3.6zM122 342.55c0 .95-.7 1.45-1.65 1.25-2.55-.45-2.85-2.8-.45-2.8 1.25 0 2.1.65 2.1 1.55zM335 353c0 1.1-.6 2-1.4 2-.75 0-1.6.9-1.9 2s-1.25 2-2.1 2c-.9 0-1.6.65-1.6 1.5s-.9 1.5-2 1.5c-1.35 0-2 .65-2 2 0 1.1-.65 2-1.45 2-.75 0-1.7.9-2.05 2s-1.3 2-2.05 2c-.8 0-1.45.65-1.45 1.5s-.9 1.5-2 1.5c-1.35 0-2 .65-2 2 0 1.6-.65 2-3.5 2s-3.5.4-3.5 2c0 1.35-.65 2-2 2-1.1 0-2 .65-2 1.5 0 1.3-2.6 2.05-5.35 1.6-.45-.1-1.05.75-1.35 1.85-.4 1.55-1.35 2.05-3.9 2.05-4.6 0-4.5-2.55.1-3.45 2.1-.4 3.5-1.2 3.5-2.1 0-.8.9-1.45 2-1.45 1.2 0 2.05-.7 2.1-1.75s.25-1.25.55-.5c.7 1.75 2.35 1.55 2.35-.25 0-.85.9-1.5 2-1.5s2-.65 2-1.5.9-1.5 2-1.5c1.35 0 2-.65 2-2s.65-2 2-2c1.1 0 2-.65 2-1.5s.45-1.5.95-1.5c.55 0 .7.75.35 1.65-.45 1.15-.25 1.45.55.95.6-.4 1.15-1.3 1.15-2.05 0-.7.95-1.55 2.1-1.85 1.25-.35 1.8-1.05 1.4-1.7s.15-1.35 1.3-1.65c1.1-.3 2.25-1.45 2.55-2.55.3-1.15 1-1.7 1.65-1.3s1.35-.15 1.7-1.4c.3-1.2 1.35-2.1 2.4-2.1 1.25 0 1.9-.7 1.9-2 0-1.1.65-2 1.5-2s1.5.9 1.5 2zm-205.5 15c0 .8-.8 1.6-1.75 1.8-1.25.25-1.75-.3-1.75-1.8s.5-2.05 1.75-1.8c.95.2 1.75 1 1.75 1.8zm202.5 0c0 1.35-.65 2-2 2s-2-.65-2-2 .65-2 2-2 2 .65 2 2zm-179 7.55c0 1.05-.75 1.5-2.15 1.25-3.2-.45-3.55-2.8-.45-2.8 1.7 0 2.6.55 2.6 1.55zm5.7 3.45c.3 1.1 1.35 2 2.4 2s1.9.65 1.9 1.5-.9 1.5-2 1.5-2-.65-2-1.5-.65-1.5-1.45-1.5c-1.75 0-2.9-1.65-2.05-3 1-1.65 2.65-1.15 3.2 1zm11.3 7.5c0 .85-.9 1.5-2 1.5s-2-.65-2-1.5.9-1.5 2-1.5 2 .65 2 1.5zm8.4 2.1c2.8 1.05 1.85 3.4-1.35 3.4-3.3 0-5-1.8-2.95-3.1 1.7-1.05 2.25-1.1 4.3-.3zm111.1.4c1.7.75 1.75.85.25.95-.95 0-1.75.5-1.75 1.05s-1.5 1-3.4 1c-2.55 0-3.5.5-3.9 2-.4 1.55-1.35 2-4.1 2-2.55 0-3.6.45-3.6 1.5 0 1.2-1.45 1.5-7 1.5s-7-.3-7-1.5 1.45-1.5 7-1.5c6.35 0 7-.2 7-2 0-1.65.65-2 4-2s4-.35 4-2c0-2.2 4.5-2.7 8.5-1zM188 394c0 1.75.65 2 5.3 2 2.9 0 5.9.55 6.65 1.25 1.05 1 1.2 1 .65 0-.4-.7-.25-1.25.35-1.25.55 0 1.05.65 1.05 1.5 0 1.2-1.45 1.5-7 1.5-5.3 0-7-.35-7-1.4 0-.8-1.5-1.65-3.5-2.05-2.1-.4-3.5-1.2-3.5-2.1 0-1 1.1-1.45 3.5-1.45 2.85 0 3.5.4 3.5 2zm66.9 5.6c1.7.35 3.1 1.25 3.1 2 0 1.15-4.85 1.4-27.5 1.4-23.45 0-27.5-.2-27.5-1.45 0-1.15 1.9-1.55 8.75-1.8 17.5-.65 40.05-.75 43.15-.15zM232 412.5c0 1.05-1.05 1.5-3.5 1.5s-3.5-.45-3.5-1.5 1.05-1.5 3.5-1.5 3.5.45 3.5 1.5zm-33 7.5c0 1.8-.45 2-3.25 1.5-2.65-.45-9.3-1.15-14.25-1.45-4.15-.3 3.1-1.7 9.5-1.9 7.55-.25 8-.1 8 1.85zm77-.45c0 .65-2.2 1.25-5.25 1.4l-6.5.3c-.95.05-.95.4 0 1.6 1 1.25 1 1.4-.05.75-.7-.4-1.95-.25-2.75.45-1.15.95-1.45.85-1.45-.5 0-.9.45-1.4 1-1.05s1-.5 1-2c0-2.6.05-2.65 7-2.35 4.35.2 7 .7 7 1.4zm-17.65 3.95c-.5 1.3-4.55 1.5-28.3 1.5-23.95 0-27.7-.2-27.7-1.5s3.8-1.5 28.3-1.5c24.75 0 28.2.2 27.7 1.5zm-51.2-297.05c.75.75 11.8.95 12.55.2.35-.35-2.45-.65-6.2-.65s-6.6.2-6.35.45zm-12.85 2.05c-1.2.85-2.9 1.2-3.9.85-1.15-.5-1.5-.3-1 .5.8 1.3 27.6 1.7 27.6.4 0-.4-2.4-.6-5.35-.4-4.8.3-9.3-.45-13.65-2.25-.85-.35-2.5.05-3.7.9z"/><path d="M261.2 128.2c-.55.55-5.45 1.35-10.85 1.75-9.45.75-9.25.75 6.15.8 11.6.05 15.05-.2 12.5-.85-1.9-.5-4.25-1.35-5.1-1.85-1.05-.55-2.05-.5-2.7.15zm-83.9 4.2c.3.75 0 1.95-.65 2.6-.9 1-.85 1.1.3.5.75-.45 3.6-.75 6.25-.6 2.65.1 4.8-.2 4.8-.7s-1.25-.95-2.75-.95c-6.25-.05-6.85-.2-5.25-1.25 1.2-.8 1.05-.95-.85-1-1.6 0-2.2.45-1.85 1.4zm11.7 1.7c0 .5 6.75.9 15 .9 8.9 0 15-.4 15-.95 0-.6-6.05-.95-15-.9-8.25 0-15 .45-15 .95zm84 56.9c0 1.35.65 2 2 2s2-.65 2-2-.65-2-2-2-2 .65-2 2zm-91.05 178.05c-.6.35 2.4.7 6.7.75s7.4-.1 6.85-.3c-2.1-.75-12.5-1.15-13.55-.45zm26.8 11.7c2.9.2 7.6.2 10.5 0s.55-.4-5.25-.4c-5.75 0-8.15.2-5.25.4z"/></svg>